<svg xmlns="http://www.w3.org/2000/svg" width="179" height="116" fill="none" viewBox="0 0 179 116">
  <g filter="url(#a)">
    <path fill="#fff" d="M23.719 45.063h6.875v44.156h4V96H23.719V45.062v.001Zm22.312 48c-1.312 2.229-2.666 3.343-4.062 3.343-1.396 0-2.552-.791-3.469-2.375-1.438-2.479-2.156-7.5-2.156-15.062V74.25c0-6.146 1.302-10.854 3.906-14.125 2-2.5 4.698-3.75 8.094-3.75h2.781v29.406c0 1.813.125 3.094.375 3.844.27.73.656 1.313 1.156 1.75l-3.437 5.031c-.709-.208-1.292-.531-1.75-.969-.459-.458-.938-1.25-1.438-2.374Zm-.843-29.157c-.98.521-1.709 1.396-2.188 2.625-.458 1.209-.688 3.646-.688 7.313v7.187c0 4.563.313 7.51.938 8.844.27.563.604.844 1 .844.417 0 .73-.136.938-.406V63.906Zm20.28-18.843h4.344c3.938 0 7.063 1.24 9.376 3.718 2.312 2.459 3.468 5.896 3.468 10.313 0 4.666-1.51 8.333-4.531 11 1.667 1.187 2.896 2.52 3.688 4 1.145 2.104 1.718 4.635 1.718 7.594 0 2.937-.552 5.552-1.656 7.843-.833 1.709-2.23 3.219-4.188 4.531-1.937 1.292-4.27 1.938-7 1.938H65.47V45.062l-.002.001Zm6.876 7.312v14.281c2.27-1.041 3.406-3.406 3.406-7.094 0-2.208-.427-4.02-1.281-5.437-.625-1-1.334-1.583-2.125-1.75Zm0 21.688v14.624c1.146-.354 2.104-1.124 2.875-2.312.77-1.208 1.156-2.781 1.156-4.719 0-1.687-.365-3.208-1.094-4.562-.708-1.354-1.687-2.365-2.937-3.031Zm20.531-17.688c1.73 0 3.198 1 4.406 3 1.98 3.292 2.969 8.969 2.969 17.031 0 8.021-1 13.698-3 17.031-1.188 1.98-2.646 2.97-4.375 2.97-1.73 0-3.198-1-4.406-3-1.98-3.272-2.969-8.938-2.969-17 0-8.042 1-13.72 3-17.032 1.188-2 2.646-3 4.375-3Zm0 6.844c-.333.416-.594.968-.781 1.656-.146.5-.281 2.177-.406 5.031-.188 4.563-.282 7.563-.282 9 0 5.917.49 9.49 1.469 10.719.313-.354.563-.833.75-1.438.125-.416.26-2.177.406-5.28.209-4.647.313-7.678.313-9.094 0-5.98-.49-9.51-1.469-10.594Zm12.531-6.844c1.229.396 2.229 1.313 3 2.75.917-1.146 1.667-1.885 2.25-2.219.584-.354 1.271-.531 2.063-.531 1.333 0 2.458.573 3.375 1.719.937 1.125 1.406 2.843 1.406 5.156V96h-5.969V63.812c0-.479-.135-.864-.406-1.156a1.283 1.283 0 0 0-.969-.437c-.229 0-.458.083-.687.25-.229.166-.448.427-.657.781V96h-5.968V63.812c0-1.52-.396-2.572-1.188-3.156l3.75-4.281Zm18 0c1.229.396 2.229 1.313 3 2.75.917-1.146 1.667-1.885 2.25-2.219.584-.354 1.271-.531 2.063-.531 1.333 0 2.458.573 3.375 1.719.937 1.125 1.406 2.843 1.406 5.156V96h-5.969V63.812c0-.479-.135-.864-.406-1.156a1.283 1.283 0 0 0-.969-.437c-.229 0-.458.083-.687.25-.229.166-.448.427-.657.781V96h-5.968V63.812c0-1.52-.396-2.572-1.188-3.156l3.75-4.281Zm14.594.406h11.125l-4.906 34.657h4.906V96h-11.313l4.938-34.625H138v-4.594Z"/>
  </g>
  <path fill="#C2C2C2" d="m69.605 42.315 11.251.201A4.87 4.87 0 0 0 84.29 41.2l13.478-12.74a4.649 4.649 0 0 0 .12-6.672l-9.872-10.021c-1.848-1.877-4.896-1.932-6.81-.122L67.728 24.383a4.672 4.672 0 0 0-1.468 3.314l-.197 11.015c-.042 1.953 1.548 3.567 3.542 3.603Zm7.373-8.128c-.024 1.305-1.119 2.34-2.45 2.316-1.333-.024-2.39-1.097-2.367-2.402.023-1.305 1.118-2.34 2.45-2.316 1.333.024 2.39 1.097 2.367 2.402Z"/>
  <defs>
    <filter id="a" width="125.406" height="55.345" x="23.719" y="45.062" color-interpolation-filters="sRGB" filterUnits="userSpaceOnUse">
      <feFlood flood-opacity="0" result="BackgroundImageFix"/>
      <feBlend in="SourceGraphic" in2="BackgroundImageFix" result="shape"/>
      <feColorMatrix in="SourceAlpha" result="hardAlpha" values="0 0 0 0 0 0 0 0 0 0 0 0 0 0 0 0 0 0 127 0"/>
      <feOffset dy="4"/>
      <feGaussianBlur stdDeviation="2"/>
      <feComposite in2="hardAlpha" k2="-1" k3="1" operator="arithmetic"/>
      <feColorMatrix values="0 0 0 0 0 0 0 0 0 0 0 0 0 0 0 0 0 0 0.25 0"/>
      <feBlend in2="shape" result="effect1_innerShadow_2_2"/>
    </filter>
  </defs>
</svg>
